<svg xmlns="http://www.w3.org/2000/svg" width="487" height="487" viewBox="0 0 487 487" fill="none">
<g clip-path="url(#clip0_661_7136)">
<g clip-path="url(#clip1_661_7136)">
<mask id="mask0_661_7136" style="mask-type:luminance" maskUnits="userSpaceOnUse" x="22" y="-31" width="441" height="428" fill="#000000">
<path d="M462.344 47.4824L97.0969 -30.4202L22.6388 318.677L387.886 396.579L462.344 47.4824Z" fill="white"/>
</mask>
<g mask="url(#mask0_661_7136)">
<path d="M405.347 80.2636C351.63 10.669 282.502 2.71284 225.925 14.6547C143.992 31.9363 -6.2924 214.268 54.7572 290.769C97.9308 344.916 262.633 386.645 338.153 339.272C410.924 293.576 470.401 164.532 405.347 80.2636Z" fill="#ffd580"/>
</g>
</g>
<g clip-path="url(#clip2_661_7136)">
<path d="M338.557 200.763C336.97 201.356 335.261 201.549 333.582 201.326C331.904 201.102 330.307 200.468 328.934 199.481C327.56 198.493 326.453 197.182 325.709 195.664C324.966 194.146 324.609 192.468 324.671 190.778C325.546 167.363 339.499 154.376 350.711 143.939C362.069 133.365 367.902 127.303 365.861 115.618C363.609 102.712 353.357 97.8612 344.516 97.6238C334.831 97.366 323.822 102.388 321.063 114.204C320.443 116.858 318.792 119.16 316.474 120.602C314.157 122.044 311.361 122.509 308.703 121.894C306.045 121.28 303.742 119.636 302.301 117.325C300.86 115.013 300.399 112.224 301.019 109.57C305.623 89.8751 323.747 76.5197 345.099 77.0891C366.092 77.6499 382.585 91.7037 386.138 112.059C390.187 135.258 376.075 148.396 364.737 158.952C354.575 168.41 345.798 176.58 345.24 191.51C345.164 193.537 344.489 195.498 343.3 197.144C342.111 198.791 340.46 200.05 338.557 200.763Z" fill="#FEFEFE"/>
<path d="M338.845 201.533C337.13 202.175 335.285 202.385 333.471 202.144C331.658 201.903 329.932 201.219 328.449 200.152C326.965 199.085 325.769 197.669 324.967 196.028C324.164 194.388 323.78 192.575 323.849 190.75C324.737 166.997 338.826 153.88 350.148 143.34C361.297 132.964 367.017 127.027 365.048 115.761C362.881 103.342 353.006 98.6746 344.486 98.4483C335.139 98.1969 324.514 103.031 321.86 114.388C321.145 117.205 319.351 119.632 316.865 121.146C314.379 122.661 311.398 123.142 308.563 122.487C305.729 121.832 303.266 120.092 301.706 117.642C300.145 115.192 299.611 112.227 300.218 109.385C304.914 89.3042 323.378 75.6879 345.122 76.2683C366.519 76.8435 383.327 91.1668 386.949 111.917C391.075 135.554 376.782 148.86 365.297 159.552C355.27 168.888 346.605 176.951 346.06 191.541C345.982 193.731 345.255 195.849 343.97 197.628C342.686 199.407 340.902 200.766 338.845 201.533ZM334.158 98.5218C337.477 97.2911 341 96.7078 344.537 96.8036C353.707 97.0504 364.335 102.082 366.672 115.476C368.786 127.58 362.845 133.766 351.273 144.54C340.171 154.875 326.357 167.734 325.495 190.805C325.437 192.053 325.627 193.298 326.054 194.471C326.481 195.644 327.136 196.72 327.983 197.638C328.829 198.555 329.85 199.296 330.985 199.817C332.121 200.338 333.349 200.63 334.599 200.674C335.848 200.719 337.095 200.516 338.267 200.077C339.438 199.638 340.511 198.972 341.424 198.117C342.337 197.262 343.071 196.235 343.585 195.096C344.098 193.957 344.38 192.728 344.415 191.48C344.987 176.211 353.879 167.93 364.174 158.35C375.37 147.928 389.301 134.959 385.328 112.2C381.844 92.2396 365.668 78.4593 345.075 77.9086C324.118 77.3527 306.337 90.4461 301.824 109.758C301.296 112.184 301.745 114.718 303.074 116.813C304.403 118.908 306.505 120.395 308.925 120.955C311.346 121.515 313.892 121.101 316.013 119.803C318.134 118.506 319.66 116.428 320.261 114.02C322.145 105.956 327.717 100.937 334.158 98.5218Z" fill="#0F172A"/>
<path d="M338.789 260.51C347.093 257.396 351.308 248.157 348.202 239.874C345.096 231.59 335.847 227.399 327.543 230.512C319.239 233.626 315.025 242.865 318.13 251.148C321.236 259.432 330.485 263.623 338.789 260.51Z" fill="#FEFEFE"/>
<path d="M339.104 261.271C338.682 261.429 338.253 261.571 337.817 261.696C333.581 262.91 329.04 262.419 325.168 260.328C321.296 258.237 318.402 254.713 317.108 250.512C315.813 246.312 316.221 241.769 318.244 237.86C320.267 233.951 323.743 230.986 327.927 229.603C332.111 228.22 336.668 228.528 340.621 230.462C344.575 232.395 347.608 235.8 349.071 239.945C350.534 244.09 350.31 248.645 348.446 252.632C346.583 256.619 343.229 259.721 339.104 261.271ZM327.809 231.291C324.075 232.696 321.039 235.505 319.354 239.115C317.668 242.725 317.466 246.849 318.792 250.601C320.118 254.353 322.866 257.434 326.445 259.183C330.025 260.932 334.151 261.209 337.938 259.955C341.725 258.701 344.871 256.016 346.7 252.476C348.53 248.936 348.897 244.823 347.723 241.021C346.549 237.219 343.928 234.03 340.422 232.139C336.916 230.248 332.804 229.805 328.97 230.907C328.576 231.019 328.188 231.146 327.808 231.289L327.809 231.291Z" fill="#0F172A"/>
</g>
<g clip-path="url(#clip3_661_7136)">
<mask id="mask1_661_7136" style="mask-type:luminance" maskUnits="userSpaceOnUse" x="77" y="49" width="282" height="407" fill="#000000">
<path d="M358.107 49.6738H77.4509V455.653H358.107V49.6738Z" fill="white"/>
</mask>
<g mask="url(#mask1_661_7136)">
<path d="M179.992 104.438C180.951 108.681 181.36 113.031 181.209 117.379C180.91 124.113 180.748 126.573 179.992 127.423C179.236 128.273 169.818 131.101 170.186 131.331C170.576 131.561 177.534 139.674 187.639 139.536C197.744 139.376 209.847 132.112 210.373 117.47L203.254 120.16L199.58 108.667C200.801 107.929 201.831 106.914 202.589 105.704C203.347 104.495 203.811 103.124 203.943 101.703C204.472 96.7149 207.434 97.2895 207.526 96.4412C207.71 94.8549 205.229 92.2116 203.805 90.0511L199.212 81.0178L194.092 79.4763L183.827 82.6249L179.992 86.8314L177.925 90.7388L178.683 98.3931L179.992 104.438ZM247.625 96.5312L271.165 76.3973C271.165 76.3973 288.159 61.9842 298.424 57.5479C308.69 53.1115 316.865 49.0896 328.693 50.5836C340.52 52.0777 339.831 55.0657 339.831 55.0657L345.918 67.3626L339.831 79.7749C339.831 79.7749 337.764 77.5918 337.879 75.4078C337.994 73.2237 340.865 68.8566 340.865 68.8566L336.387 62.6507C336.387 62.6507 335.584 65.7536 335.926 66.9029C336.268 68.0521 338.498 74.0744 337.465 75.4078C336.432 76.7411 334.824 75.1087 333.561 73.5228C332.297 71.96 327.981 63.3633 327.016 63.4552C326.051 63.5244 320.195 64.4207 311.583 68.6244C302.971 72.8282 298.539 77.6347 298.539 77.6347L283.106 98.6663L271.854 115.17C271.854 115.17 260.648 127.858 254.054 131.765C250.425 126.279 248.034 120.066 247.049 113.561C245.604 103.128 247.625 96.5312 247.625 96.5312Z" fill="#ffd580"/>
<path d="M339.831 54.5835L354.023 58.4434C354.023 58.4434 354.208 60.6265 352.141 61.1554L357.193 64.3751C357.193 64.3751 356.228 66.2601 354.161 65.9841C352.634 65.7361 351.149 65.2717 349.752 64.605C350.167 64.7199 355.147 70.1213 355.147 70.1213C355.147 70.1213 354.274 71.386 351.427 70.3521C348.579 69.3183 343.735 64.8348 343.735 64.8348L339.831 54.5835ZM173.561 230.536L166.901 255.061L144.235 332.292C144.235 332.292 130.455 370.747 125.862 381.021C121.269 391.295 109.947 416.878 109.947 416.878L132.155 423.475C132.155 423.475 149.149 399.869 160.471 380.722C171.793 361.576 187.111 334.453 191.865 318.96L191.404 333.372C191.404 333.372 189.727 398.811 183.894 424.095L189.406 423.475L208.237 421.222C208.237 421.222 215.885 400.489 218.962 389.778C222.016 379.044 233.361 341.049 237.174 323.581C240.986 306.112 245.902 266.738 245.902 266.738C245.902 266.738 247.441 244.215 248.36 229.203C249.278 214.192 248.199 210.125 248.199 210.125L173.561 230.536Z" fill="#ffd580"/>
<path d="M222.524 361.712C223.143 359.49 223.444 357.192 223.419 354.885C223.397 353.828 223.304 352.931 223.075 352.678C220.939 350.334 219.079 356.057 217.701 357.666C215.542 360.195 212.373 361.735 211.156 357.851C209.962 353.99 216.438 345.876 221.214 340.082C221.375 339.897 221.513 339.712 221.676 339.528C227.801 331.915 231.909 322.879 233.619 313.255C234.408 308.791 235.135 304.316 235.801 299.832C245.558 233.753 240.85 215.824 240.85 215.824L248.429 210.308C248.429 210.308 245.903 266.69 241.309 302.247C236.716 337.804 208.469 421.081 208.469 421.081L202.268 421.771C202.268 421.771 212.649 397.362 222.524 361.712Z" fill="#FEFEFE"/>
<path d="M170.186 131.33C170.186 131.33 160.242 134.824 148.414 140.34C136.587 145.857 127.858 150.454 127.858 150.454C127.858 150.454 128.432 164.015 132.222 173.67C136.012 183.324 147.955 193.896 147.955 193.896L160.816 189.184L173.561 230.558C173.561 230.558 190.096 232.168 209.619 227.225C229.142 222.282 244.641 214.238 248.201 210.102L247.168 166.2L267.031 144.248C267.031 144.248 255.434 139.421 250.726 125.515C246.018 111.609 245.903 105.058 247.626 96.5537C247.626 96.5537 236.144 105.058 232.813 107.012C225.705 111.245 218.187 114.748 210.376 117.47C210.376 117.47 210.445 133.79 194.576 138.616C179.418 143.191 170.186 131.33 170.186 131.33Z" fill="#FEFEFE"/>
<path d="M139.55 184.496C139.573 184.428 141.065 178.312 146.508 176.015C152.112 173.624 156.521 173.349 159.736 173.119C163.089 172.888 165.523 172.728 166.971 170.361C168.325 168.131 168.279 165.901 166.856 164.084C164.099 160.613 155.993 158.73 147.197 161.601C134.635 165.716 129.581 160.889 129.514 160.843L128.549 161.831C128.78 162.062 134.268 167.277 147.61 162.911C155.74 160.245 163.365 161.9 165.753 164.934C166.833 166.313 166.856 167.899 165.776 169.646C164.697 171.393 162.791 171.531 159.621 171.738C156.314 171.969 151.79 172.266 145.957 174.726C139.87 177.3 138.263 183.897 138.218 184.173L139.55 184.496ZM188.719 229.869L190.073 229.616C190.05 229.524 188.512 220.767 193.587 214.791C196.665 211.182 200.798 211.803 205.577 212.538C207.505 212.883 209.453 213.099 211.41 213.182C215.452 213.297 218.001 212.217 220.068 211.343C222.181 210.447 223.697 209.803 226.039 210.608C232.08 212.676 231.896 219.388 231.896 219.457L233.274 219.503C233.274 219.434 233.504 211.665 226.499 209.275C223.674 208.309 221.768 209.114 219.564 210.056C217.519 210.906 215.223 211.872 211.48 211.78C209.577 211.695 207.681 211.48 205.808 211.137C200.824 210.378 196.139 209.642 192.557 213.849C187.042 220.376 188.65 229.479 188.719 229.869ZM247.809 198.241L247.877 196.861C245.429 196.647 243.028 196.057 240.758 195.115C235.981 193.092 233.134 189.807 232.33 185.346C230.722 176.657 242.182 170.635 242.297 170.566L241.677 169.348C239.497 170.533 237.488 172.01 235.706 173.736C231.871 177.46 230.24 181.552 230.998 185.598C231.894 190.47 235.109 194.217 240.299 196.401C242.688 197.413 245.223 198.034 247.809 198.241ZM198.318 162.155C199.432 162.152 200.541 162.021 201.625 161.764C203.115 161.422 204.516 160.768 205.735 159.845C206.954 158.922 207.963 157.751 208.697 156.408C211.567 151.008 214.989 150.11 218.021 149.329C220.868 148.593 223.554 147.881 224.543 143.514C225.347 139.859 223.877 136.365 220.248 133.446C218.541 132.084 216.646 130.977 214.622 130.159L214.14 131.446C214.255 131.492 224.888 135.629 223.211 143.215C222.43 146.755 220.432 147.261 217.7 147.996C214.553 148.824 210.649 149.835 207.503 155.765C204.793 160.868 198.041 161.833 193.356 159.788C191.427 158.937 185.387 155.535 188.396 146.824L187.087 146.362C184.377 154.178 188.258 159.073 192.782 161.05C194.534 161.788 196.417 162.164 198.318 162.155ZM253.045 144.318C255.686 144.318 258.44 142.847 260.876 140.042L259.843 139.123C257.064 142.295 253.917 143.559 251.23 142.617C248.566 141.674 246.775 138.663 246.591 134.756C246.247 127.561 243.353 126.688 236.372 124.619C235.315 124.296 234.098 123.952 232.789 123.516C231.044 122.964 229.987 121.999 229.528 120.597C227.943 115.655 234.282 107.059 234.351 106.966L233.248 106.139C232.972 106.508 226.405 115.402 228.219 121.011C228.819 122.849 230.217 124.137 232.376 124.826C233.685 125.242 234.902 125.608 235.981 125.929C242.848 127.975 244.915 128.596 245.213 134.825C245.444 139.307 247.556 142.8 250.771 143.927C251.499 144.194 252.27 144.326 253.045 144.318ZM189.407 423.474L186.537 435.564L203.991 433.61L208.239 421.198L189.407 423.474ZM110.131 417.061L105.721 424.922L120.695 431.518L127.585 422.462L110.131 417.061Z" fill="#ffd580"/>
<path d="M127.858 150.432C127.858 150.432 111.026 158.822 99.0826 168.935C87.139 179.049 84.5456 189.163 87.4392 194.518C90.3555 199.872 101.976 205.39 101.976 205.39C101.976 205.39 116.835 210.744 122.645 211.667C128.456 212.59 159.688 217.021 159.688 217.021L168.254 219.48C168.254 219.48 175.672 224.077 176.063 223.157C176.453 222.238 169.862 216.331 169.862 216.331C169.862 216.331 180.495 220.629 180.883 220.009C181.126 219.609 181.283 219.162 181.344 218.699C181.344 218.699 183.411 219.457 183.572 218.86C183.733 218.239 181.965 215.641 178.979 212.883C175.993 210.125 174.225 208.125 174.225 208.125C174.225 208.125 184.261 210.493 184.399 209.505C184.559 208.516 174.133 203.988 170.16 203L160.675 204.999L132.131 191.507L140.674 188.473C140.674 188.473 132.016 176.452 130.179 168.085C129.014 162.259 128.239 156.361 127.858 150.432Z" fill="#ffd580"/>
<path d="M99.0615 168.936C103.98 164.881 109.183 161.187 114.632 157.88C113.507 162.799 109.074 170.177 102.55 177.349C96.9005 183.58 90.9523 188.244 86.3362 190.404C86.1089 184.771 89.7376 176.864 99.0615 168.936Z" fill="#FEFEFE"/>
<path d="M199.443 251.246L209.411 250.533C210.183 250.477 210.903 250.116 211.41 249.531C211.918 248.945 212.173 248.181 212.12 247.407C212.064 246.634 211.704 245.914 211.118 245.406C210.533 244.898 209.77 244.642 208.997 244.695L199.03 245.408C198.257 245.464 197.537 245.824 197.029 246.41C196.521 246.996 196.266 247.76 196.32 248.534C196.38 249.306 196.741 250.024 197.326 250.532C197.91 251.039 198.671 251.296 199.443 251.246ZM187.019 282.758L199.145 273.288C199.753 272.807 200.148 272.106 200.243 271.336C200.338 270.566 200.125 269.789 199.652 269.174C199.172 268.565 198.471 268.171 197.701 268.076C196.932 267.981 196.156 268.193 195.542 268.667L183.414 278.138C182.805 278.62 182.411 279.321 182.316 280.092C182.221 280.862 182.433 281.638 182.906 282.253C183.388 282.861 184.089 283.255 184.859 283.35C185.629 283.445 186.405 283.232 187.019 282.758Z" fill="#0F172A"/>
<path d="M231.135 272.254C228.447 272.254 226.267 270.073 226.267 267.381C226.267 264.69 228.447 262.508 231.135 262.508C233.824 262.508 236.004 264.69 236.004 267.381C236.004 270.073 233.824 272.254 231.135 272.254Z" fill="#FEFEFE"/>
<path d="M196.297 416.05C196.456 416.052 196.61 415.997 196.732 415.896C196.854 415.794 196.936 415.653 196.963 415.496C204.473 378.306 210.697 308.89 210.742 308.201C210.756 308.019 210.699 307.839 210.584 307.698C210.468 307.557 210.303 307.465 210.123 307.442C209.942 307.432 209.763 307.49 209.623 307.605C209.483 307.72 209.391 307.883 209.364 308.063C209.296 308.752 203.072 378.099 195.608 415.198C195.572 415.374 195.608 415.558 195.707 415.709C195.806 415.859 195.96 415.965 196.137 416.002C196.183 416.036 196.24 416.053 196.297 416.05ZM125.678 395.363C125.791 395.361 125.901 395.333 126.001 395.281C126.1 395.229 126.187 395.155 126.252 395.064C132.499 385.755 139.503 371.802 147.059 353.599C147.124 353.432 147.121 353.247 147.051 353.082C146.982 352.917 146.85 352.787 146.685 352.718C146.521 352.649 146.335 352.647 146.169 352.713C146.003 352.778 145.869 352.907 145.796 353.07C138.263 371.183 131.305 385.043 125.127 394.283C125.025 394.436 124.987 394.623 125.022 394.803C125.056 394.984 125.16 395.144 125.312 395.248C125.416 395.33 125.546 395.371 125.678 395.363ZM158.266 323.281C158.408 323.279 158.546 323.234 158.661 323.151C158.776 323.069 158.862 322.953 158.909 322.819C169.175 294.318 176.547 269.287 176.617 269.034C176.656 268.904 176.656 268.766 176.616 268.637C176.576 268.507 176.499 268.393 176.394 268.307C176.289 268.222 176.161 268.17 176.026 268.157C175.892 268.145 175.757 268.173 175.638 268.237C175.478 268.323 175.36 268.47 175.308 268.643C175.239 268.896 167.891 293.881 157.625 322.337C157.591 322.421 157.575 322.512 157.577 322.603C157.58 322.694 157.601 322.783 157.64 322.865C157.679 322.947 157.735 323.02 157.804 323.08C157.873 323.139 157.953 323.184 158.04 323.21C158.109 323.251 158.186 323.276 158.266 323.281Z" fill="#0F172A"/>
<path d="M197.28 93.3057C195.23 92.9503 193.697 91.922 193.855 91.009C194.013 90.0961 195.803 89.6438 197.852 89.9992C199.902 90.3546 201.435 91.3829 201.277 92.2958C201.119 93.2088 199.329 93.6611 197.28 93.3057Z" fill="#FEFEFE"/>
<path d="M193.174 90.9006C193.243 90.4852 193.589 89.7283 194.965 89.3835C195.948 89.1705 196.962 89.1548 197.951 89.3373C198.945 89.4903 199.897 89.8419 200.753 90.3712C201.947 91.1761 201.993 92.0037 201.924 92.4172C201.855 92.8308 201.509 93.5895 200.132 93.9343C199.636 94.0497 199.127 94.1032 198.617 94.0954C198.124 94.0938 197.632 94.0474 197.147 93.9569C196.153 93.8038 195.2 93.4521 194.345 92.9226C193.151 92.1417 193.105 91.3141 193.174 90.9006ZM194.529 91.1314C194.506 91.2001 194.644 91.4761 195.128 91.7978C195.781 92.2039 196.506 92.4773 197.264 92.6023C197.141 92.4899 197.046 92.3504 196.986 92.1949C196.926 92.0393 196.903 91.8719 196.92 91.706C196.988 91.2689 197.427 90.9472 198.091 90.7635C197.976 90.7404 197.86 90.7174 197.722 90.6943C197.312 90.6228 196.898 90.5842 196.482 90.5789C196.087 90.5743 195.693 90.6204 195.311 90.7174C194.757 90.8558 194.553 91.0626 194.53 91.1328L194.529 91.1314ZM193.932 88.693H193.978C196.757 88.532 198.663 86.3253 198.755 86.2335C198.818 86.1663 198.867 86.0869 198.899 86.0003C198.931 85.9136 198.945 85.8213 198.941 85.7291C198.936 85.6368 198.913 85.5465 198.872 85.4634C198.832 85.3804 198.775 85.3064 198.705 85.2459C198.635 85.1854 198.554 85.1397 198.466 85.1114C198.378 85.0832 198.286 85.073 198.194 85.0815C198.102 85.0901 198.013 85.1171 197.932 85.161C197.85 85.205 197.779 85.2649 197.722 85.3372C197.698 85.3602 196.114 87.1759 193.909 87.3139C193.818 87.3183 193.729 87.341 193.647 87.3807C193.565 87.4204 193.492 87.4762 193.432 87.5448C193.372 87.6135 193.326 87.6935 193.298 87.7802C193.269 87.8668 193.259 87.9583 193.266 88.0492C193.271 88.2223 193.344 88.3866 193.468 88.5069C193.592 88.6273 193.759 88.6941 193.932 88.693ZM196.366 100.83C196.628 100.307 197.014 99.8578 197.491 99.5208C197.959 99.1608 198.513 98.9309 199.098 98.8544C199.363 98.8054 199.635 98.8263 199.889 98.9149C200.143 99.0035 200.369 99.1569 200.546 99.3598C200.69 99.5891 200.77 99.8529 200.777 100.124C200.786 100.394 200.722 100.662 200.592 100.9C200.33 101.423 199.944 101.873 199.466 102.21C198.924 102.628 198.267 102.868 197.583 102.9C197.36 102.912 197.137 102.87 196.933 102.778C196.729 102.686 196.55 102.547 196.412 102.371C196.262 102.144 196.178 101.879 196.17 101.607C196.162 101.335 196.23 101.065 196.366 100.83ZM163.916 455.562H235.913C236.095 455.562 236.27 455.489 236.4 455.36C236.529 455.23 236.601 455.055 236.601 454.872C236.601 454.689 236.529 454.514 236.4 454.385C236.27 454.255 236.095 454.183 235.913 454.183H163.916C163.825 454.181 163.735 454.198 163.65 454.232C163.566 454.266 163.489 454.316 163.425 454.381C163.361 454.445 163.31 454.522 163.277 454.606C163.243 454.691 163.226 454.781 163.227 454.872C163.227 455.055 163.3 455.23 163.429 455.359C163.558 455.489 163.733 455.561 163.916 455.562ZM245.558 455.562H257.271C257.454 455.562 257.629 455.489 257.758 455.36C257.887 455.23 257.96 455.055 257.96 454.872C257.96 454.689 257.887 454.514 257.758 454.385C257.629 454.255 257.454 454.183 257.271 454.183H245.558C245.375 454.183 245.2 454.255 245.071 454.385C244.941 454.514 244.869 454.689 244.869 454.872C244.869 455.055 244.941 455.23 245.071 455.36C245.2 455.489 245.375 455.562 245.558 455.562ZM265.538 455.562H269.327C269.51 455.562 269.685 455.489 269.814 455.36C269.943 455.23 270.016 455.055 270.016 454.872C270.016 454.689 269.943 454.514 269.814 454.385C269.685 454.255 269.51 454.183 269.327 454.183H265.538C265.355 454.183 265.18 454.255 265.051 454.385C264.921 454.514 264.849 454.689 264.849 454.872C264.849 455.055 264.921 455.23 265.051 455.36C265.18 455.489 265.355 455.562 265.538 455.562ZM78.14 455.562H142.535C142.625 455.562 142.715 455.544 142.799 455.509C142.882 455.475 142.958 455.424 143.022 455.36C143.086 455.296 143.137 455.22 143.172 455.136C143.206 455.052 143.224 454.963 143.224 454.872C143.224 454.782 143.206 454.692 143.172 454.608C143.137 454.525 143.086 454.449 143.022 454.385C142.958 454.321 142.882 454.27 142.799 454.235C142.715 454.2 142.625 454.183 142.535 454.183H78.14C78.049 454.181 77.9587 454.198 77.8744 454.232C77.79 454.266 77.7133 454.316 77.6488 454.381C77.5849 454.445 77.5345 454.522 77.5005 454.606C77.4666 454.691 77.4497 454.781 77.451 454.872C77.4519 455.055 77.5247 455.23 77.6537 455.359C77.7828 455.488 77.9575 455.561 78.14 455.562Z" fill="#0F172A"/>
<path d="M210.582 197.645C211.822 197.645 213.245 197.255 214.968 196.266C218.091 194.474 219.745 191.807 219.492 188.934C219.24 186.015 217.127 183.442 214.097 182.337C213.178 181.993 212.374 181.737 211.685 181.51C208.08 180.292 207.322 180.039 204.405 175.971C203.517 174.665 202.299 173.617 200.875 172.935C199.451 172.253 197.872 171.96 196.298 172.087C192.119 172.318 188.49 174.868 187.204 177.144C185.275 180.568 185.918 183.097 186.789 184.614C188.902 188.269 194.391 189.992 198.915 190.06C201.418 190.106 202.911 191.876 204.495 193.761C206.081 195.621 207.803 197.645 210.582 197.645ZM196.894 173.442C198.155 173.422 199.4 173.716 200.519 174.298C201.637 174.88 202.594 175.731 203.302 176.775C206.471 181.188 207.481 181.533 211.248 182.797C211.937 183.028 212.717 183.305 213.636 183.625C216.117 184.521 217.908 186.681 218.114 189.025C218.321 191.368 216.966 193.507 214.279 195.047C209.663 197.69 207.849 195.552 205.552 192.84C203.922 190.91 202.061 188.703 198.938 188.657C194.942 188.588 189.821 187.071 187.983 183.899C186.973 182.152 187.111 180.083 188.42 177.785C189.545 175.808 192.829 173.624 196.389 173.418C196.557 173.437 196.725 173.445 196.894 173.441V173.442Z" fill="#ffd580"/>
<path d="M140.468 210.814C140.607 210.817 140.744 210.777 140.86 210.699C140.975 210.62 141.063 210.508 141.111 210.377C141.144 210.291 141.16 210.199 141.157 210.107C141.153 210.015 141.132 209.925 141.093 209.841C141.054 209.758 140.999 209.683 140.931 209.621C140.863 209.559 140.783 209.511 140.696 209.481C138.974 208.837 138.744 206.355 138.744 206.332C138.72 206.158 138.632 206 138.496 205.889C138.36 205.778 138.187 205.723 138.012 205.735C137.838 205.747 137.674 205.824 137.554 205.952C137.434 206.08 137.367 206.249 137.366 206.424C137.366 206.563 137.643 209.803 140.191 210.745C140.274 210.798 140.371 210.822 140.468 210.814ZM135.347 208.676C135.486 208.676 135.621 208.635 135.736 208.557C135.85 208.479 135.939 208.368 135.99 208.239C136.053 208.068 136.048 207.879 135.975 207.712C135.902 207.545 135.768 207.413 135.599 207.343C134.221 206.791 134.474 204.86 134.474 204.769C134.502 204.589 134.457 204.405 134.349 204.259C134.241 204.112 134.08 204.014 133.9 203.987C133.721 203.959 133.537 204.004 133.391 204.112C133.244 204.22 133.147 204.381 133.119 204.561C133.054 205.097 133.069 205.639 133.165 206.17C133.24 206.712 133.459 207.223 133.798 207.652C134.137 208.08 134.585 208.41 135.095 208.607C135.17 208.654 135.258 208.678 135.347 208.676Z" fill="#0F172A"/>
<path d="M93.4569 173.44C99.3134 166.935 108.614 160.131 121.107 153.167C140.375 142.432 161.181 134.273 172.366 129.883C175.811 128.527 178.315 127.538 179.164 127.101C181.299 125.998 181.047 115.999 180.174 109.265V109.219C180.059 107.288 178.727 103.978 177.533 101.059C176.913 99.5422 176.339 98.1169 175.926 96.8527C175.787 96.4161 175.627 96.0021 175.464 95.565C174.27 92.2558 173.03 88.8537 175.234 81.8203C177.392 74.9248 181.848 74.3733 183.226 74.3733C189.289 67.4317 193.951 65.5237 198.773 68.0294C200.427 68.8795 201.529 70.4654 201.989 72.6033C202.151 73.3662 202.228 74.1448 202.219 74.9248C202.692 75.067 203.135 75.2928 203.528 75.5913C204.401 76.2578 205.434 77.6369 205.572 80.395C205.757 84.3948 203.988 86.1874 203.092 86.8313C203.322 87.2679 203.528 87.7045 203.691 88.0723C203.846 88.4127 203.992 88.7574 204.127 89.1062C204.45 90.1081 204.965 91.0373 205.643 91.8418C206.064 92.2436 206.509 92.6197 206.975 92.9679C207.94 93.7036 208.95 94.4624 208.652 95.9103C208.375 97.2894 206.884 97.9101 205.896 98.3237C205.689 98.416 205.413 98.5305 205.322 98.5766C204.794 99.1974 204.679 100.117 204.541 101.266C204.357 102.806 204.15 104.737 202.704 106.666C202.043 107.538 201.262 108.312 200.384 108.965L203.255 117.999C203.44 118.461 203.578 118.896 203.716 119.355C206.794 118.321 219.723 113.839 230.333 107.678C238.831 102.76 252.334 91.5196 264.253 81.59C269.306 77.3839 274.082 73.4068 277.803 70.488C289.376 61.4325 305.911 51.5947 316.774 50.0546C326.947 48.6298 337.121 51.5486 339.326 53.1354L341.76 54.5371C341.815 54.5334 341.87 54.5413 341.921 54.5602L354.391 57.8694C354.546 57.9085 354.682 58.0017 354.775 58.1323C354.868 58.2629 354.912 58.4223 354.898 58.582C354.834 59.5231 354.425 60.4073 353.75 61.0647C353.64 61.1561 353.525 61.2405 353.405 61.3176L357.767 63.8459C357.924 63.9389 358.038 64.0896 358.085 64.2657C358.132 64.4418 358.109 64.6294 358.02 64.7884C357.689 65.3766 357.213 65.8708 356.639 66.2245C356.064 66.5783 355.409 66.7801 354.736 66.8109C354.488 66.8128 354.241 66.7817 354.001 66.7186C353.46 66.5842 352.93 66.4075 352.416 66.1901L355.93 69.7066C355.996 69.7734 356.048 69.8527 356.084 69.9398C356.119 70.0269 356.137 70.1202 356.137 70.2143C356.139 70.3049 356.122 70.3949 356.086 70.4782C356.051 70.5615 355.997 70.636 355.93 70.6966C355.206 71.3145 354.286 71.6565 353.335 71.6622C352.665 71.659 352.005 71.501 351.406 71.2006C350.096 70.5799 348.144 69.0171 346.674 67.776V67.8221C346.674 68.0294 346.674 68.2592 343.345 74.3502C339.923 80.648 339.9 80.648 339.372 80.648C338.568 80.648 337.672 78.7861 337.328 76.9704C337.094 77.0622 336.84 77.0862 336.593 77.0396C334.825 76.7405 332.551 73.063 329.542 67.9144C328.601 66.2824 327.522 64.4663 327.177 64.1446C326.649 64.0292 324.146 64.4676 319.438 66.1675C314.853 67.8108 310.401 69.8012 306.118 72.1214C305.504 72.4659 304.914 72.8498 304.35 73.2707L298.47 78.9015C291.144 87.1073 282.624 100.117 276.906 108.875C276.313 109.777 275.724 110.681 275.137 111.587C272.53 115.45 269.529 119.032 266.181 122.275C267.27 125.318 268.167 128.427 268.868 131.583C270.384 138.548 270.016 143.007 267.766 144.869L260.187 153.144C260.163 153.213 260.124 153.276 260.072 153.329L260.049 153.352L247.786 166.683C247.878 169.878 248.842 199.092 249.164 210.309C249.554 223.549 248.841 241.569 247.212 259.751C245.213 282.092 241.908 304.319 237.658 324.017C228.334 367.23 209.365 420.762 209.159 421.337L202.913 438.944C205.668 436.025 210.193 431.841 213.201 432.002C213.64 432.02 214.068 432.144 214.448 432.364C214.828 432.585 215.149 432.894 215.383 433.266C215.627 433.609 215.781 434.008 215.829 434.426C215.878 434.844 215.819 435.268 215.66 435.657C215.223 436.714 214.052 437.703 212.536 438.576C212.651 438.576 212.767 438.553 212.881 438.553C215.866 438.346 216.624 439.519 216.716 440.553C216.753 440.873 216.712 441.197 216.596 441.497C216.48 441.798 216.293 442.065 216.05 442.277C215.062 443.196 212.881 443.495 210.584 443.495C209.118 443.488 207.653 443.396 206.198 443.218C208.287 444.046 210.814 445.057 213.317 446.138C216.808 447.632 219.589 448.965 221.584 450.068C223.697 451.24 225.672 452.505 225.626 453.746C225.58 455.148 223.376 455.653 214.649 455.653C209.987 455.653 203.465 455.515 194.417 455.284C190.397 455.192 185.85 455.053 181.028 454.961C180.71 454.979 180.392 454.915 180.106 454.774C179.821 454.633 179.576 454.42 179.397 454.156C178.524 452.754 179.812 450.019 181.717 445.859C182.359 444.48 183.095 442.917 183.783 441.285C184.78 438.855 185.632 436.368 186.333 433.837V433.814C186.335 433.676 186.375 433.541 186.448 433.424C186.816 432.16 187.113 430.918 187.412 429.792V429.654C187.432 429.513 187.462 429.374 187.504 429.238C187.735 428.204 188.262 425.699 188.538 424.411L184.059 425.011H183.967C183.871 425.012 183.776 424.992 183.689 424.952C183.602 424.912 183.524 424.854 183.462 424.781C183.385 424.699 183.331 424.599 183.303 424.491C183.274 424.382 183.274 424.268 183.301 424.16C188.721 398.301 190.375 355.365 190.88 333.368L191.041 322.726C186.401 333.827 181.762 344.217 177.697 352.216C176.447 354.671 175.161 357.108 173.839 359.525C173.818 359.598 173.787 359.668 173.747 359.732C173.678 359.847 173.586 359.985 173.517 360.101C156.246 391.844 132.868 423.678 132.613 424.025C132.549 424.111 132.466 424.18 132.37 424.228C132.275 424.277 132.169 424.302 132.062 424.302C132 424.307 131.937 424.299 131.878 424.279L128.318 423.245L117.777 436.714C121.337 435.771 129.029 434.047 131.832 436.116C132.187 436.373 132.474 436.712 132.67 437.105C132.866 437.497 132.964 437.93 132.957 438.369C132.972 438.787 132.881 439.203 132.692 439.577C132.504 439.95 132.223 440.27 131.878 440.506C131.097 441.06 129.88 441.288 128.502 441.288C128.225 441.288 127.951 441.288 127.675 441.265C127.767 441.311 127.882 441.38 127.974 441.426C130.592 442.897 130.569 444.299 130.11 445.196C129.967 445.483 129.756 445.731 129.496 445.92C129.236 446.108 128.934 446.23 128.617 446.276C128.472 446.295 128.326 446.303 128.181 446.299C125.402 446.299 120.625 442.391 118.42 440.461L122.531 447.126C123.335 447.333 125.815 448 128.272 448.873C132.682 450.436 134.726 451.769 134.84 453.171C134.854 453.344 134.831 453.518 134.771 453.68C134.712 453.843 134.618 453.991 134.496 454.114C134.127 454.504 133.141 455.516 123.794 455.516H122.898C117.984 455.493 113.253 455.193 113.207 455.193C113.067 455.181 112.932 455.134 112.817 455.054C112.771 455.008 108.086 451.262 103.424 447.469C93.847 439.654 93.7322 439.286 93.6404 438.942C93.4338 438.229 94.1016 437.539 96.6259 435.011C98.6927 432.942 101.518 430.138 103.332 427.426C104.962 424.852 109.188 417.244 109.419 416.83C109.88 415.818 125.61 381.547 136.036 354.793L145.498 327.325C151.377 308.063 158.979 280.688 164.651 259.794C164.743 259.404 164.858 259.013 164.974 258.599C164.974 258.576 164.974 258.576 164.997 258.576C169.199 243.107 172.277 231.476 172.713 229.844L170.072 221.202C169.349 220.759 168.637 220.3 167.936 219.823L159.37 217.708C158.521 217.593 144.236 215.777 127.701 213.272C125.106 212.881 118.354 211.502 117.734 211.341C108.525 209.18 98.351 205.733 91.9896 200.952C91.8291 200.86 91.7129 200.813 91.6667 200.791C91.5404 200.722 91.4366 200.619 91.3684 200.492C88.1302 197.918 86.0191 194.975 85.7424 191.666C85.1904 185.829 87.8088 179.691 93.4569 173.44ZM215.061 441.288C215.144 441.216 215.209 441.125 215.249 441.022C215.288 440.919 215.302 440.808 215.288 440.699C215.275 440.589 215.234 440.485 215.17 440.395C215.106 440.305 215.021 440.233 214.922 440.184C214.466 439.989 213.971 439.902 213.475 439.931C211.293 439.931 207.803 440.965 205.529 441.793C209.25 442.23 213.843 442.391 215.061 441.288ZM207.229 439.426C212.695 437.449 214.004 435.909 214.302 435.15C214.381 434.967 214.41 434.767 214.386 434.569C214.362 434.371 214.285 434.183 214.164 434.024C214.05 433.832 213.889 433.672 213.696 433.559C213.503 433.446 213.285 433.385 213.062 433.38H212.947C211.477 433.38 209.02 434.921 206.011 437.748C204.886 438.805 203.852 439.909 203.049 440.759C204.22 440.437 205.69 439.977 207.229 439.426H207.229ZM128.273 444.942C128.382 444.928 128.485 444.887 128.574 444.822C128.662 444.758 128.733 444.672 128.781 444.573C128.839 444.475 128.868 444.362 128.864 444.248C128.86 444.134 128.823 444.023 128.758 443.93C127.862 442.344 123.016 440.849 120.008 440.114C122.9 442.552 126.666 445.216 128.273 444.942ZM122.716 439.104C128.365 440.437 130.317 439.862 130.983 439.403C131.148 439.293 131.282 439.142 131.371 438.965C131.46 438.787 131.501 438.59 131.49 438.391C131.502 438.167 131.456 437.942 131.355 437.741C131.255 437.539 131.103 437.367 130.916 437.242C130.273 436.759 129.125 436.53 127.54 436.53C125.89 436.556 124.246 436.726 122.626 437.037C121.087 437.314 119.64 437.658 118.515 437.934C119.9 438.377 121.301 438.767 122.716 439.104H122.716ZM203.394 120.872C203.371 120.872 203.348 120.895 203.324 120.895H203.072C203.06 120.897 203.047 120.896 203.035 120.892C203.023 120.888 203.012 120.881 203.003 120.872H202.957C202.934 120.872 202.934 120.849 202.911 120.849C202.888 120.849 202.888 120.826 202.865 120.826C202.842 120.826 202.842 120.804 202.819 120.804C202.795 120.804 202.796 120.781 202.772 120.781C202.749 120.781 202.75 120.757 202.726 120.757L202.68 120.711C202.668 120.699 202.659 120.683 202.657 120.665L202.611 120.619C202.611 120.596 202.588 120.596 202.588 120.573C202.588 120.55 202.565 120.55 202.565 120.527C202.565 120.504 202.542 120.504 202.542 120.481C202.542 120.457 202.519 120.458 202.519 120.434L201.601 117.745C200.406 115.125 198.638 113.746 196.318 113.653C190.164 113.401 189.658 111.263 189.635 110.85V110.665C189.635 110.642 189.658 110.596 189.658 110.573C189.658 110.549 189.682 110.549 189.682 110.526C189.705 110.503 189.705 110.48 189.728 110.457C189.728 110.445 189.734 110.434 189.742 110.425C189.75 110.417 189.762 110.412 189.774 110.411C189.797 110.388 189.797 110.365 189.82 110.342C189.82 110.339 189.82 110.336 189.821 110.333C189.823 110.33 189.824 110.327 189.826 110.326C189.828 110.323 189.831 110.322 189.834 110.321C189.836 110.319 189.839 110.319 189.842 110.319C189.855 110.306 189.871 110.298 189.889 110.296L189.935 110.249C189.957 110.226 189.981 110.226 190.003 110.203C190.026 110.203 190.026 110.18 190.049 110.18C190.073 110.18 190.096 110.158 190.118 110.158C190.131 110.159 190.143 110.158 190.155 110.154C190.167 110.15 190.178 110.143 190.187 110.135C190.199 110.136 190.212 110.135 190.224 110.131C190.236 110.127 190.247 110.12 190.256 110.111H190.394C190.625 110.135 190.856 110.135 191.06 110.158C192.507 110.204 196.044 110.111 199.029 108.181C199.091 108.124 199.16 108.077 199.236 108.042C200.126 107.448 200.903 106.701 201.532 105.836C202.75 104.204 202.933 102.549 203.117 101.101C203.255 99.7905 203.416 98.5725 204.265 97.63C204.577 97.3659 204.935 97.1624 205.322 97.03C206.034 96.7314 207.136 96.2717 207.274 95.6278C207.389 95.0763 207.089 94.8007 206.103 94.065C205.57 93.6867 205.071 93.2637 204.61 92.8004C203.794 91.8701 203.177 90.7832 202.796 89.6061C202.657 89.283 202.543 88.9391 202.381 88.6174C201.692 87.0773 200.336 84.5951 198.155 82.9631C196.868 85.3534 194.021 85.8131 191.678 86.1809C190.255 86.4117 188.922 86.6176 188.303 87.1917C187.223 88.1808 187.154 89.9277 187.085 91.4448C187.039 92.5018 187.017 93.3986 186.67 94.065C186.597 94.2287 186.486 94.3725 186.346 94.4844C186.207 94.5963 186.042 94.6731 185.866 94.7084C185.201 94.8233 184.649 94.293 183.938 93.6284C182.858 92.5941 181.939 91.8584 180.998 92.2493C180.723 92.3745 180.48 92.5589 180.286 92.7894C180.091 93.0199 179.95 93.2907 179.873 93.5822C179.642 94.3867 179.895 95.3061 180.607 96.2486C182.192 98.4091 184.121 98.0186 184.19 97.9955C184.363 97.9506 184.548 97.9761 184.702 98.0665C184.857 98.157 184.97 98.305 185.017 98.4783C185.063 98.5932 185.866 101.443 184.97 105.65C184.305 108.776 182.651 109.58 181.595 109.764C181.755 111.166 182.077 114.384 182.148 117.694C182.355 126.934 180.403 127.946 179.76 128.29C178.864 128.773 176.453 129.692 172.847 131.117C172.411 131.302 171.951 131.462 171.47 131.669C173.643 134.026 176.303 135.883 179.264 137.11C182.226 138.337 185.418 138.906 188.621 138.777C191.823 138.648 194.96 137.825 197.813 136.363C200.666 134.902 203.168 132.837 205.146 130.313C207.791 126.937 209.399 122.864 209.776 118.59C205.966 120.045 203.44 120.849 203.394 120.872ZM216.874 115.77C214.83 116.643 212.901 117.402 211.179 118.068C210.906 122.717 209.26 127.181 206.449 130.893C203.639 134.605 199.79 137.397 195.391 138.917C190.992 140.436 186.242 140.613 181.742 139.426C177.242 138.239 173.196 135.742 170.117 132.25C168.269 132.977 166.424 133.713 164.583 134.457C168.293 139.296 173.425 142.851 179.257 144.622C185.089 146.393 191.33 146.291 197.101 144.331C202.873 142.37 207.886 138.65 211.436 133.692C214.987 128.734 216.897 122.787 216.898 116.687C216.874 116.39 216.874 116.09 216.874 115.77ZM353.427 59.0431L346.17 57.1356L351.796 60.3765C351.984 60.3863 352.172 60.3587 352.349 60.2954C352.526 60.232 352.689 60.1341 352.829 60.0073C353.122 59.7544 353.33 59.4182 353.427 59.0431ZM354.276 65.3663C354.666 65.4389 355.067 65.409 355.442 65.2795C355.816 65.1501 356.151 64.9255 356.412 64.6278L351.406 61.7316C351.32 61.7202 351.237 61.692 351.162 61.6486C351.088 61.6052 351.022 61.5475 350.969 61.4787L343.161 56.9736L348.948 62.7429C349.637 63.1795 352.531 64.997 354.276 65.363V65.3663ZM351.98 69.9402C352.337 70.1325 352.733 70.2426 353.138 70.2625C353.543 70.2824 353.948 70.2115 354.322 70.0551L348.055 63.7998C348.043 63.7866 348.026 63.7784 348.008 63.7767C347.922 63.7176 347.851 63.6383 347.801 63.5459L342.542 58.3047C343.69 60.5801 344.815 63.1315 345.619 65.0164C346.032 65.4087 349.983 68.9714 351.98 69.9355L351.98 69.9402ZM337.328 69.2737C337.651 70.2162 337.994 71.2274 338.246 72.1699C338.824 70.9759 339.484 69.8239 340.222 68.7221C338.912 66.6761 337.489 64.5618 336.708 63.5044C336.638 64.1044 336.593 64.9753 336.547 65.6644L336.524 66.1934C336.455 66.7652 336.892 68.0294 337.328 69.2705V69.2737ZM273.943 110.808C274.497 109.958 275.092 109.061 275.712 108.119C278.1 104.487 280.948 100.12 284.025 95.638C284.018 95.5211 284.033 95.404 284.071 95.2932C285.243 92.7187 285.472 90.7881 284.737 89.7085C284.138 88.8122 282.808 88.4208 280.81 88.5131C279.226 88.5824 277.939 87.9385 277.296 86.7205C277.001 86.1955 276.851 85.6009 276.863 84.9985C276.876 84.3961 277.049 83.808 277.365 83.2954C278.49 81.7326 282.785 80.2617 287.332 78.7215C288.366 78.3767 289.445 78.0089 290.433 77.641C295.159 75.8818 299.769 73.8244 304.235 71.4813C304.346 71.4155 304.474 71.3835 304.604 71.3889C304.868 71.2103 305.144 71.0484 305.429 70.9043C309.878 68.4908 314.508 66.4306 319.279 64.7427C324.147 63.0189 327.019 62.4212 327.868 62.9501C328.375 63.2732 329.016 64.3061 330.716 67.2023C331.841 69.1329 333.104 71.2934 334.298 73.0177C336.021 75.4773 336.687 75.6614 336.802 75.6841C337.765 74.8339 336.709 71.7536 336.021 69.7302C335.514 68.2361 335.079 66.972 335.125 66.1209L335.148 65.5929C335.286 63.2713 335.355 62.2139 335.929 61.7773C336.029 61.7009 336.144 61.6469 336.267 61.619C336.39 61.5912 336.517 61.5901 336.641 61.6158C336.94 61.685 337.445 61.8004 341.601 68.3511C341.624 68.3972 341.647 68.4198 341.67 68.466C341.67 68.4891 341.693 68.5121 341.693 68.5348C341.693 68.5574 341.693 68.5578 341.716 68.5809V68.8338C341.716 68.8565 341.693 68.88 341.693 68.9026C341.693 68.9252 341.693 68.9488 341.67 68.9488C341.652 68.9903 341.629 69.0286 341.601 69.0637C340.706 70.3736 338.386 74.1204 338.57 75.913C338.645 76.8722 338.902 77.8083 339.328 78.6712C340.729 76.2351 344.656 69.0175 345.253 67.7326C344.699 66.1467 340.59 56.7229 338.845 54.5851L338.477 54.2158C336.845 53.0431 327.177 49.9396 316.912 51.388C309.517 52.4218 294.359 59.1816 278.606 71.5228C274.909 74.419 270.132 78.3952 265.079 82.5998C259.568 87.1968 253.712 92.0472 248.177 96.46V96.483C248.177 96.5061 247.236 99.3105 247.121 104.137C247.028 108.596 247.649 115.745 251.14 124.502C251.99 126.611 252.963 128.668 254.056 130.662C257.828 127.903 261.404 124.884 264.758 121.629C264.817 121.536 264.895 121.457 264.989 121.398C268.345 118.199 271.348 114.648 273.943 110.805V110.808ZM187.894 433.108L203.556 432.831L207.437 421.936L196.391 423.384C196.349 423.41 196.302 423.426 196.253 423.431C196.184 423.454 190.419 424.787 188.927 429.015C188.65 430.231 188.305 431.634 187.892 433.105L187.894 433.108ZM106.941 423.914L120.444 430.993L124.05 426.396C124.07 426.316 124.101 426.238 124.142 426.166C124.321 425.934 124.447 425.665 124.511 425.379C124.575 425.093 124.575 424.797 124.511 424.511C124.212 423.108 122.513 421.821 121.778 421.361L110.273 418.006C109.695 419.038 108.294 421.543 106.939 423.911L106.941 423.914ZM163.962 267.266C158.932 285.654 152.849 307.42 147.794 324.2C147.84 324.342 147.84 324.495 147.794 324.637V324.66C147.539 325.454 147.414 326.285 147.425 327.119C147.449 328.798 148.138 329.97 149.446 330.613C150.113 330.936 151.835 330.475 153.488 330.039C156.474 329.234 160.194 328.246 162.009 330.659C162.333 331.081 162.56 331.571 162.671 332.092C162.782 332.613 162.776 333.152 162.652 333.67C161.802 337.715 155.28 341.945 151.467 344.083C145.377 347.64 140.153 352.508 136.172 358.334C136.121 358.418 136.05 358.49 135.966 358.54C126.343 382.859 113.161 411.82 110.91 416.762L122.186 420.049C122.199 420.048 122.211 420.049 122.223 420.053C122.235 420.057 122.246 420.063 122.255 420.072L123.495 420.441L131.74 422.855C133.255 420.786 140.536 410.741 149.469 397.111C149.481 397.031 149.504 396.954 149.538 396.88C152.615 391.157 151.536 388.238 150.434 387.41C149.285 386.56 146.3 387.617 143.659 388.536C140.191 389.755 136.907 390.904 135.299 389.157C134.904 388.777 134.606 388.307 134.43 387.787C134.254 387.267 134.206 386.712 134.289 386.169C134.888 382.56 141.431 378.952 150.48 373.964L151.329 373.503C160.401 368.515 171.126 360.102 172.549 358.976C173.881 356.516 175.19 354.057 176.431 351.597C181.391 341.874 187.155 328.589 192.805 314.775L218.205 248.232C218.205 248.21 218.227 248.186 218.251 248.164C218.251 248.141 218.274 248.118 218.274 248.095L218.343 248.026C218.366 248.003 218.366 247.98 218.389 247.98C218.415 247.951 218.446 247.928 218.481 247.91C218.504 247.91 218.504 247.887 218.527 247.887C218.579 247.86 218.632 247.837 218.687 247.818L232.008 244.141C232.051 244.122 232.099 244.114 232.146 244.118H232.307C232.33 244.118 232.33 244.118 232.353 244.141C232.377 244.141 232.422 244.164 232.446 244.164C232.463 244.166 232.479 244.174 232.492 244.187C232.514 244.21 232.538 244.21 232.561 244.233C232.563 244.233 232.566 244.233 232.569 244.234C232.572 244.236 232.575 244.237 232.577 244.239C232.579 244.242 232.581 244.244 232.582 244.247C232.583 244.25 232.584 244.253 232.584 244.256L232.607 244.279L232.675 244.348L232.721 244.394C232.744 244.416 232.768 244.44 232.768 244.463C232.768 244.485 232.791 244.486 232.791 244.509C232.814 244.531 232.814 244.555 232.837 244.601C232.839 244.618 232.847 244.635 232.859 244.647C232.859 244.67 232.882 244.716 232.882 244.739V244.762C232.905 245.085 233.297 251.359 229.139 255.266C225.534 258.668 221.79 262.76 221.239 267.405C221.055 268.899 221.285 271.014 221.562 273.473C222.205 279.335 222.986 286.644 218.967 291.678C217.52 293.471 215.935 295.24 214.374 296.941C209.895 301.86 205.67 306.503 205.325 311.836C205.257 312.916 205.257 314.272 205.257 315.835C205.279 324.96 205.303 340.246 191.753 349.738C190.903 372.446 188.997 403.041 184.84 423.567L208.036 420.533C209.804 415.546 227.464 364.955 236.35 323.788C240.598 304.135 243.883 281.955 245.858 259.682C247.419 242.236 248.131 224.974 247.855 211.964C245.697 213.918 240.392 218.195 231.228 222.813C223.191 226.859 210.973 231.709 194.162 234.973C193.13 239.189 191.644 243.282 189.73 247.178C187.135 252.439 183.92 256.763 180.176 260.05C177.707 262.212 174.908 263.966 171.886 265.244C171.831 265.281 171.767 265.305 171.702 265.314H171.679C169.186 266.246 166.598 266.9 163.962 267.266ZM171.908 237.891C170.53 243.063 168.532 250.464 166.213 259.015C166.028 259.934 165.822 262.37 167.039 263.52C167.751 264.186 168.877 264.393 170.415 264.094L171.15 263.91C174.071 262.701 176.772 261.016 179.142 258.922C182.748 255.773 185.871 251.59 188.374 246.51C190.142 242.874 191.542 239.071 192.554 235.156C185.727 236.444 178.835 237.357 171.908 237.891ZM173.837 229.179C198.709 230.26 217.494 224.973 228.885 220.33C239.953 215.802 246.385 211.021 247.717 209.987C247.51 203.252 247.117 190.541 246.798 180.589C246.664 180.471 246.581 180.305 246.568 180.127C246.199 173.369 241.01 170.45 236.853 168.127C236.095 167.69 235.384 167.299 234.717 166.886C234.441 166.725 234.143 166.541 233.845 166.357C230.653 164.403 226.312 161.737 225.577 158.22C225.438 157.433 225.466 156.624 225.66 155.848C225.854 155.071 226.209 154.345 226.703 153.715C230.193 148.773 236.073 151.715 238.897 153.118C239.288 153.334 239.695 153.518 240.115 153.669C241.538 153.922 242.434 153.462 243.49 152.933C244.59 152.265 245.855 151.914 247.142 151.922C248.244 151.968 249.347 152.405 250.655 152.911C251.81 153.383 252.991 153.79 254.192 154.129C256.075 154.637 257.798 153.439 258.556 152.773L266.019 144.659C263.217 143.556 255.547 139.326 249.829 125.053C244.455 111.583 245.534 101.791 246.361 97.9069C240.551 102.458 235.155 106.411 230.951 108.848C226.823 111.196 222.567 113.314 218.205 115.192C218.228 115.699 218.251 116.18 218.251 116.686C218.25 123.107 216.229 129.366 212.474 134.573C208.72 139.78 203.423 143.672 197.334 145.697C191.245 147.722 184.674 147.777 178.552 145.854C172.431 143.932 167.069 140.129 163.228 134.985C161.344 135.738 159.469 136.512 157.602 137.307C157.557 137.351 157.502 137.382 157.441 137.399L157.372 137.422C157.108 137.551 156.872 137.731 156.679 137.952C156.486 138.173 156.339 138.431 156.247 138.71C156.016 139.537 156.339 140.594 157.188 141.813C157.97 142.671 158.806 143.477 159.692 144.226C163.16 147.352 167.913 151.627 167.408 154.799C167.321 155.517 167.048 156.2 166.618 156.78C166.187 157.36 165.612 157.818 164.951 158.109C164.317 158.37 163.638 158.503 162.953 158.5C161.253 158.5 159.324 157.81 157.465 156.5C156.202 155.604 155.008 154.615 153.974 153.742C151.655 151.788 149.841 150.271 148.325 150.708C146.199 151.239 143.986 151.325 141.825 150.961C138.909 150.499 136.614 149.283 135.142 147.421C132.944 148.506 130.754 149.609 128.574 150.731C128.713 152.937 129.837 167.808 134.8 177.026C140.266 187.186 146.559 191.92 148.097 192.955C148.128 192.926 148.169 192.91 148.212 192.909L148.581 192.77C149.499 192.401 151.934 191.161 152.186 188.656C152.214 188.231 152.175 187.804 152.072 187.391C151.864 186.196 151.635 184.702 153.059 183.093C155.723 180.082 161.074 182.611 165.437 185.162C171.156 188.495 176.415 192.149 176.185 196.218C176.07 198.102 175.197 199.022 174.463 199.459C173.766 199.84 172.982 200.03 172.189 200.01C170.98 199.987 169.79 199.704 168.699 199.183C167.78 198.746 165.047 197.482 164.358 198.125L165.897 203.16C167.849 202.56 169.594 202.102 170.237 202.148C171.776 202.217 183.878 207.113 185.509 209.044C185.612 209.154 185.691 209.285 185.743 209.427C185.794 209.569 185.816 209.72 185.807 209.871C185.792 210.006 185.747 210.136 185.675 210.251C185.603 210.366 185.507 210.464 185.392 210.538C184.967 210.778 184.478 210.882 183.991 210.836C182.351 210.767 180.721 210.544 179.123 210.17C178.204 209.985 177.309 209.801 176.528 209.618C177.309 210.331 178.158 211.135 178.985 211.917C184.934 217.594 184.98 218.582 184.451 219.295C184.31 219.484 184.131 219.641 183.925 219.756C183.719 219.871 183.491 219.941 183.256 219.962C182.836 219.98 182.418 219.893 182.039 219.709C181.986 219.891 181.917 220.068 181.833 220.238C181.259 221.479 179.123 220.766 172.693 217.87C176.482 221.065 177.722 222.467 177.148 223.501C177.075 223.629 176.976 223.74 176.857 223.828C176.738 223.915 176.603 223.977 176.459 224.008C176.36 224.028 176.26 224.036 176.16 224.031C175.173 224.031 173.45 223.204 171.728 222.238L173.837 229.179ZM141.938 189.415L134.681 192.035C141.157 195.207 154.018 201.069 161.688 204.516C162.561 204.217 163.572 203.896 164.559 203.574L160.356 189.875L148.299 194.449C148.202 194.481 148.099 194.494 147.996 194.486C147.894 194.478 147.794 194.45 147.702 194.403C145.599 192.963 143.665 191.29 141.938 189.415ZM87.0507 191.576C87.3034 194.541 89.3472 197.299 92.6084 199.781C93.7567 200.264 97.6376 201.666 104.918 201.942C105.379 201.965 105.813 201.965 106.273 201.988C112.427 202.219 118.238 202.404 120.029 205.436C120.81 206.746 120.764 208.401 119.914 210.493C122.531 211.062 125.166 211.545 127.814 211.941C144.763 214.515 159.346 216.354 159.483 216.377C159.496 216.375 159.509 216.377 159.521 216.381C159.533 216.385 159.544 216.391 159.553 216.4L168.279 218.537C168.36 218.558 168.437 218.589 168.51 218.63C171.151 220.422 174.366 222.238 175.675 222.629C174.871 221.526 172.184 219.273 170.944 218.239C168.671 216.354 168.395 216.101 168.625 215.503C168.698 215.327 168.839 215.186 169.015 215.113C169.43 214.951 169.658 215.044 172.805 216.445C174.825 217.365 179.464 219.457 180.659 219.48C180.707 219.379 180.732 219.269 180.732 219.158C180.732 219.047 180.707 218.937 180.659 218.836C180.59 218.767 180.52 218.721 180.474 218.675L170.691 212.148C170.544 212.042 170.444 211.883 170.413 211.704C170.381 211.526 170.42 211.342 170.521 211.192C170.623 211.042 170.78 210.938 170.957 210.901C171.135 210.865 171.32 210.9 171.472 210.998L181.301 217.549C181.432 217.628 181.549 217.729 181.646 217.848C182.107 218.217 182.748 218.63 183.138 218.583C183.151 218.585 183.163 218.584 183.175 218.58C183.187 218.576 183.198 218.569 183.208 218.56C182.587 217.136 177.144 211.872 171.956 207.366C171.822 207.247 171.742 207.079 171.731 206.9C171.72 206.721 171.779 206.545 171.897 206.41C172.014 206.275 172.18 206.191 172.358 206.177C172.537 206.162 172.713 206.218 172.851 206.332C172.874 206.355 173.471 206.861 174.39 207.688C174.437 207.684 174.485 207.692 174.528 207.711C178.524 208.723 182.268 209.389 183.898 209.435C183.025 208.837 181.143 207.803 177.535 206.24C173.699 204.562 170.668 203.505 170.163 203.482C169.382 203.436 165.501 204.654 162.102 205.804C161.988 205.87 161.863 205.917 161.733 205.942C160.906 206.219 160.102 206.496 159.413 206.747C159.339 206.773 159.261 206.789 159.183 206.793C158.529 207.001 157.848 207.11 157.162 207.116H157.049C156.129 207.102 155.224 206.874 154.408 206.449C153.42 205.898 152.938 205.024 152.433 204.105C151.581 202.311 150.114 200.884 148.299 200.082C148.174 200.022 148.07 199.925 148.001 199.805C142.328 197.208 136.265 194.381 132.798 192.611C132.68 192.581 132.57 192.526 132.475 192.45C131.655 192.049 130.858 191.604 130.086 191.117C126.458 188.451 125.792 184.106 125.746 183.922C125.732 183.833 125.735 183.742 125.757 183.654C125.778 183.566 125.816 183.483 125.87 183.411C125.978 183.264 126.14 183.166 126.32 183.138C126.5 183.111 126.684 183.156 126.83 183.264C126.903 183.318 126.964 183.385 127.011 183.463C127.057 183.54 127.088 183.626 127.101 183.716C127.101 183.762 127.721 187.692 130.89 190.013C131.569 190.449 132.274 190.841 133.003 191.186L136.769 189.83C133.761 185.21 130.018 177.234 128.181 164.638C127.536 160.277 127.198 155.876 127.17 151.467C125.356 152.41 123.565 153.398 121.774 154.386C97.7755 167.739 86.109 180.245 87.0507 191.576Z" fill="#0F172A"/>
<path d="M106.571 439.288C105.536 439.288 104.543 438.876 103.811 438.143C103.079 437.41 102.667 436.416 102.667 435.38C102.667 434.344 103.079 433.35 103.811 432.617C104.543 431.884 105.536 431.473 106.571 431.473C107.607 431.473 108.6 431.884 109.332 432.617C110.064 433.35 110.475 434.344 110.475 435.38C110.475 436.416 110.064 437.41 109.332 438.143C108.6 438.876 107.607 439.288 106.571 439.288ZM189.935 449.516C188.9 449.516 187.907 449.105 187.175 448.372C186.443 447.639 186.031 446.645 186.031 445.609C186.031 444.572 186.443 443.579 187.175 442.846C187.907 442.113 188.9 441.701 189.935 441.701C190.971 441.701 191.964 442.113 192.696 442.846C193.428 443.579 193.84 444.572 193.84 445.609C193.84 446.645 193.428 447.639 192.696 448.372C191.964 449.105 190.971 449.516 189.935 449.516Z" fill="#FEFEFE"/>
</g>
</g>
</g>
<defs fill="#000000">
<clipPath id="clip0_661_7136" fill="#000000">
<rect width="487" height="487" fill="white"/>
</clipPath>
<clipPath id="clip1_661_7136" fill="#000000">
<rect width="374.016" height="357.133" fill="white" transform="matrix(-0.978002 -0.208596 -0.208596 0.978002 462.344 47.4824)"/>
</clipPath>
<clipPath id="clip2_661_7136" fill="#000000">
<rect width="114.932" height="174.671" fill="white" transform="translate(261.951 103.652) rotate(-20.5519)"/>
</clipPath>
<clipPath id="clip3_661_7136" fill="#000000">
<rect width="280.837" height="406.158" fill="white" transform="matrix(-1 0 0 1 358.107 49.6738)"/>
</clipPath>
</defs>
</svg>